<?xml version="1.0" encoding="iso-8859-1"?>
<!-- Generator: Adobe Illustrator 19.0.0, SVG Export Plug-In . SVG Version: 6.00 Build 0)  -->
<svg version="1.1" id="Layer_1" xmlns="http://www.w3.org/2000/svg" xmlns:xlink="http://www.w3.org/1999/xlink" x="0px" y="0px"
	 viewBox="0 0 512 512" style="enable-background:new 0 0 512 512;" xml:space="preserve">
<circle style="fill:#273B7A;" cx="256" cy="256" r="256"/>
<path style="fill:#121149;" d="M214.483,435.717l74.212,74.214c120.613-15.376,214.99-114.686,222.765-237.518L282.733,44.225
	L214.483,435.717z"/>
<path style="fill:#FF7F4F;" d="M341.333,284.444c0,109.966-38.205,170.667-85.333,170.667s-85.333-60.7-85.333-170.667
	s38.205-256,85.333-256S341.333,174.478,341.333,284.444z"/>
<path style="fill:#E03A00;" d="M256,28.444c-0.191,0-0.383,0.022-0.574,0.028v426.615c0.193,0.002,0.381,0.022,0.574,0.022
	c47.128,0,85.333-60.7,85.333-170.667S303.128,28.444,256,28.444z"/>
<path style="fill:#FFC61B;" d="M178.4,191.378c-4.748,29.906-7.483,60.663-7.713,89.176L256,195.241l85.313,85.313
	c-0.229-28.515-2.967-59.271-7.713-89.176l-77.6-77.6L178.4,191.378z"/>
<path style="fill:#D48B07;" d="M341.313,280.554c-0.229-28.515-2.967-59.271-7.713-89.176l-77.6-77.6l-0.574,0.574v81.463
	l0.574-0.574L341.313,280.554z"/>
<g>
</g>
<g>
</g>
<g>
</g>
<g>
</g>
<g>
</g>
<g>
</g>
<g>
</g>
<g>
</g>
<g>
</g>
<g>
</g>
<g>
</g>
<g>
</g>
<g>
</g>
<g>
</g>
<g>
</g>
</svg>
